{"title":"Puncture.Wounds.2014.720p.WEBRIP.x264.AC3-MiLLENiUM (SilverTorre","uid":9759620,"size":2465789030,"categoryP":"video","categoryS":"hd___movies","magnet":"?xt=urn:btih:698f3832bc38fbd497afc0b6e01d555fa217e46e&amp;dn=Puncture.Wounds.2014.720p.WEBRIP.x264.AC3-MiLLENiUM+%28SilverTorre&amp;tr=udp%3A%2F%2Ftracker.openbittorrent.com%3A80&amp;tr=udp%3A%2F%2Fopen.demonii.com%3A1337&amp;tr=udp%3A%2F%2Ftracker.coppersurfer.tk%3A6969&amp;tr=udp%3A%2F%2Fexodus.desync.com%3A6969","seeders":1,"leechers":0,"uploader":"AliBaloch","files":3,"time":1394793730,"description":"SilverTorrent - Clean And Verified Torrents Download\n\n------------------------------------------------------\n\nPuncture.Wounds.2014.720p.WEBRIP.x264.AC3-MiLLENiUM\n &lt;a href=&quot;\nhttp://www.imdb.com/title/tt2909476/&quot; rel=&quot;nofollow&quot; target=&quot;_NEW&quot;&gt;\nhttp://www.imdb.com/title/tt2909476/&lt;/a&gt;\n\nSource...............:  WEB-DL\n\n\n\nGeneral\nUnique ID                                : 245902633866768337001968250926814143122 (0xB8FF1FE592EC5241BD4D41F44A372292)\nComplete name                            : Puncture.Wounds.2014.720p.WEBRIP.x264.AC3-MiLLENiUM.mkv\nFormat                                   : Matroska\nFormat version                           : Version 2\nFile size                                : 2.28 GiB\nDuration                                 : 1h 36mn\nOverall bit rate mode                    : Variable\nOverall bit rate                         : 3 367 Kbps\nEncoded date                             : UTC 2014-03-12 13:21:17\nWriting application                      : mkvmerge v6.5.0 ('Isn't she lovely') built on Oct 20 2013 12:50:05\nWriting library                          : libebml v1.3.0 + libmatroska v1.4.1\n\n\n\nID                                       : 1\nFormat                                   : AVC\nFormat/Info                              : Advanced Video Codec\nFormat profile                           : &lt;a class=&quot;__cf_email__&quot; href=&quot;/cdn-cgi/l/email-protection&quot; data-cfemail=&quot;dd95b4bab59d91e9f3ec&quot;&gt;[email&amp;#160;protected]&lt;/a&gt;&lt;script cf-hash='f9e31' type=&quot;text/javascript&quot;&gt;\n/* &lt;![CDATA[ */!function(){try{var t=&quot;currentScript&quot;in document?document.currentScript:function(){for(var t=document.getElementsByTagName(&quot;script&quot;),e=t.length;e--;)if(t[e].getAttribute(&quot;cf-hash&quot;))return t[e]}();if(t&amp;&amp;t.previousSibling){var e,r,n,i,c=t.previousSibling,a=c.getAttribute(&quot;data-cfemail&quot;);if(a){for(e=&quot;&quot;,r=parseInt(a.substr(0,2),16),n=2;a.length-n;n+=2)i=parseInt(a.substr(n,2),16)^r,e+=String.fromCharCode(i);e=document.createTextNode(e),c.parentNode.replaceChild(e,c)}}}catch(u){}}();/* ]]&gt; */&lt;/script&gt;\nFormat settings, CABAC                   : Yes\nFormat settings, ReFrames                : 3 frames\nCodec ID                                 : V_MPEG4/ISO/AVC\nDuration                                 : 1h 36mn\nBit rate mode                            : Variable\nBit rate                                 : 2 916 Kbps\nMaximum bit rate                         : 40.0 Mbps\nWidth                                    : 1 280 pixels\nHeight                                   : 714 pixels\nDisplay aspect ratio                     : 16:9\nFrame rate mode                          : Constant\nFrame rate                               : 23.976 fps\nColor space                              : YUV\nChroma subsampling                       : 4:2:0\nBit depth                                : 8 bits\nScan type                                : Progressive\nBits/(Pixel*Frame)                       : 0.133\nStream size                              : 1.97 GiB (87%)\nWriting library                          : x264 core 138 r2358 9e941d1\nLanguage                                 : English\nDefault                                  : Yes\nForced                                   : No\n\n\n\n\nID                                       : 2\nFormat                                   : AC-3\nFormat/Info                              : Audio Coding 3\nMode extension                           : CM (complete main)\nFormat settings, Endianness              : Big\nCodec ID                                 : A_AC3\nDuration                                 : 1h 36mn\nBit rate mode                            : Constant\nBit rate                                 : 384 Kbps\nChannel(s)                               : 6 channels\nChannel positions                        : Front: L C R, Side: L R, LFE\nSampling rate                            : 48.0 KHz\nBit depth                                : 16 bits\nCompression mode                         : Lossy\nStream size                              : 266 MiB (11%)\nLanguage                                 : English\nDefault                                  : Yes\nForced                                   : No\n\nText\nID                                       : 3\nFormat                                   : UTF-8\nCodec ID                                 : S_TEXT/UTF8\nCodec ID/Info                            : UTF-8 Plain Text\nLanguage                                 : English\nDefault                                  : Yes\nForced                                   : No\n\nMenu\n00:00:00.000                             : en:Chapter 1\n00:09:39.000                             : en:Chapter 2\n0018.gif27.000                             : en:Chapter 3\n00:28:14.000                             : en:Chapter 4\n00:39:18.000                             : en:Chapter 5\n00:46:48.000                             : en:Chapter 6\n00:56:23.000                             : en:Chapter 7\n01:06:15.000                             : en:Chapter 8\n01:16:01.000                             : en:Chapter 9\n01:26:19.000                             : en:Chapter 10\n01:34:46.000                             : en:Chapter 11\n &lt;a href=&quot;\nhttp://lookpic.com/O/i2/911/sZvqepV3.png&quot; rel=&quot;nofollow&quot; target=&quot;_NEW&quot;&gt;\nhttp://lookpic.com/O/i2/911/sZvqepV3.png&lt;/a&gt; &lt;a href=&quot;\nhttp://lookpic.com/O/i2/556/8Yj6vuG5.png&quot; rel=&quot;nofollow&quot; target=&quot;_NEW&quot;&gt;\nhttp://lookpic.com/O/i2/556/8Yj6vuG5.png&lt;/a&gt; &lt;a href=&quot;\nhttp://lookpic.com/O/i2/228/Obv670r.png&quot; rel=&quot;nofollow&quot; target=&quot;_NEW&quot;&gt;\nhttp://lookpic.com/O/i2/228/Obv670r.png&lt;/a&gt; &lt;a href=&quot;\nhttp://lookpic.com/O/i2/592/sr9IZKE.png&quot; rel=&quot;nofollow&quot; target=&quot;_NEW&quot;&gt;\nhttp://lookpic.com/O/i2/592/sr9IZKE.png&lt;/a&gt; &lt;a href=&quot;\nhttp://lookpic.com/O/i2/104/H0vAUtE.png&quot; rel=&quot;nofollow&quot; target=&quot;_NEW&quot;&gt;\nhttp://lookpic.com/O/i2/104/H0vAUtE.png&lt;/a&gt; &lt;a href=&quot;\nhttp://lookpic.com/O/i2/668/Wx2gF8u6.png&quot; rel=&quot;nofollow&quot; target=&quot;_NEW&quot;&gt;\nhttp://lookpic.com/O/i2/668/Wx2gF8u6.png&lt;/a&gt; &lt;a href=&quot;\nhttp://lookpic.com/O/i2/156/wCHrmsfT.png&quot; rel=&quot;nofollow&quot; target=&quot;_NEW&quot;&gt;\nhttp://lookpic.com/O/i2/156/wCHrmsfT.png&lt;/a&gt; &lt;a href=&quot;\nhttp://lookpic.com/O/i2/1127/O6NTQg71.png&quot; rel=&quot;nofollow&quot; target=&quot;_NEW&quot;&gt;\nhttp://lookpic.com/O/i2/1127/O6NTQg71.png&lt;/a&gt;\n\n------------------------------------------------------\nSilverTorrent - Clean And Verified Torrents Download\n\n","torrent":{"xt":"urn:btih:698f3832bc38fbd497afc0b6e01d555fa217e46e","amp;dn":"Puncture.Wounds.2014.720p.WEBRIP.x264.AC3-MiLLENiUM+%28SilverTorre","amp;tr":["udp%3A%2F%2Ftracker.openbittorrent.com%3A80","udp%3A%2F%2Fopen.demonii.com%3A1337","udp%3A%2F%2Ftracker.coppersurfer.tk%3A6969","udp%3A%2F%2Fexodus.desync.com%3A6969"],"infoHash":"698f3832bc38fbd497afc0b6e01d555fa217e46e","infoHashBuffer":{"type":"Buffer","data":[105,143,56,50,188,56,251,212,151,175,192,182,224,29,85,95,162,23,228,110]},"announce":[],"urlList":[]}}